<svg width="16" height="16" viewBox="0 0 16 16" fill="none" xmlns="http://www.w3.org/2000/svg">
<path d="M14 5.66665C13.0333 5.66665 12.4933 6.62665 12.7133 7.33998L10.3466 9.71331C10.1466 9.65331 9.85329 9.65331 9.65329 9.71331L7.95329 8.01331C8.17996 7.29998 7.63996 6.33331 6.66663 6.33331C5.69996 6.33331 5.15329 7.29331 5.37996 8.01331L2.33996 11.0466C1.62663 10.8266 0.666626 11.3666 0.666626 12.3333C0.666626 13.0666 1.26663 13.6666 1.99996 13.6666C2.96663 13.6666 3.50663 12.7066 3.28663 11.9933L6.31996 8.95331C6.51996 9.01331 6.81329 9.01331 7.01329 8.95331L8.71329 10.6533C8.48663 11.3666 9.02663 12.3333 9.99996 12.3333C10.9666 12.3333 11.5133 11.3733 11.2866 10.6533L13.66 8.28665C14.3733 8.50665 15.3333 7.96665 15.3333 6.99998C15.3333 6.26665 14.7333 5.66665 14 5.66665Z" fill="#28272A"/>
<path d="M9.99996 6.33331L10.6266 4.95331L12 4.33331L10.6266 3.71331L9.99996 2.33331L9.38663 3.71331L7.99996 4.33331L9.38663 4.95331L9.99996 6.33331Z" fill="#28272A"/>
<path d="M2.33329 7.66665L2.66663 6.33331L3.99996 5.99998L2.66663 5.66665L2.33329 4.33331L1.99996 5.66665L0.666626 5.99998L1.99996 6.33331L2.33329 7.66665Z" fill="#28272A"/>
</svg>
