<svg width="16" height="16" viewBox="0 0 16 16" fill="none" xmlns="http://www.w3.org/2000/svg">
<mask id="mask0_835_100" style="mask-type:alpha" maskUnits="userSpaceOnUse" x="0" y="0" width="16" height="16">
<rect width="16" height="16" fill="#D9D9D9"/>
</mask>
<g mask="url(#mask0_835_100)">
<path d="M2 13.3334V10.6667C2 9.74449 2.325 8.95837 2.975 8.30837C3.625 7.65837 4.41111 7.33337 5.33333 7.33337H12.4833C12.9056 7.33337 13.2639 7.47782 13.5583 7.76671C13.8528 8.0556 14 8.41115 14 8.83337C14 9.17782 13.8944 9.48615 13.6833 9.75837C13.4722 10.0306 13.2056 10.2112 12.8833 10.3L11.3333 10.75V13.3334C11.3333 13.5667 11.2806 13.7778 11.175 13.9667C11.0694 14.1556 10.9278 14.3112 10.75 14.4334C10.5722 14.5556 10.3778 14.6306 10.1667 14.6584C9.95556 14.6862 9.73889 14.6556 9.51667 14.5667L6.36667 13.3334H2ZM10 11.3334H6.25C6.17222 11.3334 6.11389 11.3556 6.075 11.4C6.03611 11.4445 6.01111 11.4945 6 11.55C5.98889 11.6056 5.99722 11.6584 6.025 11.7084C6.05278 11.7584 6.1 11.7945 6.16667 11.8167L10 13.3334V11.3334ZM3.33333 12H4.73333C4.71111 11.9334 4.69444 11.8667 4.68333 11.8C4.67222 11.7334 4.66667 11.6612 4.66667 11.5834C4.66667 11.15 4.82222 10.7778 5.13333 10.4667C5.44444 10.1556 5.81667 10 6.25 10H8.96667L12.5333 9.01671C12.5889 8.99449 12.6278 8.96671 12.65 8.93337C12.6722 8.90004 12.6778 8.86115 12.6667 8.81671C12.6556 8.77226 12.6361 8.73615 12.6083 8.70837C12.5806 8.6806 12.5389 8.66671 12.4833 8.66671H5.33333C4.77778 8.66671 4.30556 8.86115 3.91667 9.25004C3.52778 9.63893 3.33333 10.1112 3.33333 10.6667V12ZM6.66667 6.66671C5.93333 6.66671 5.30556 6.4056 4.78333 5.88337C4.26111 5.36115 4 4.73337 4 4.00004C4 3.26671 4.26111 2.63893 4.78333 2.11671C5.30556 1.59449 5.93333 1.33337 6.66667 1.33337C7.4 1.33337 8.02778 1.59449 8.55 2.11671C9.07222 2.63893 9.33333 3.26671 9.33333 4.00004C9.33333 4.73337 9.07222 5.36115 8.55 5.88337C8.02778 6.4056 7.4 6.66671 6.66667 6.66671ZM6.66667 5.33337C7.03333 5.33337 7.34722 5.20282 7.60833 4.94171C7.86944 4.6806 8 4.36671 8 4.00004C8 3.63337 7.86944 3.31949 7.60833 3.05837C7.34722 2.79726 7.03333 2.66671 6.66667 2.66671C6.3 2.66671 5.98611 2.79726 5.725 3.05837C5.46389 3.31949 5.33333 3.63337 5.33333 4.00004C5.33333 4.36671 5.46389 4.6806 5.725 4.94171C5.98611 5.20282 6.3 5.33337 6.66667 5.33337Z" fill="#1C1B1F"/>
</g>
</svg>
