<svg width="16" height="16" viewBox="0 0 16 16" fill="none" xmlns="http://www.w3.org/2000/svg">
<path d="M10.5034 9.50332H9.97671L9.79004 9.32332C10.4434 8.56332 10.8367 7.57665 10.8367 6.50332C10.8367 4.10998 8.89671 2.16998 6.50338 2.16998C4.11004 2.16998 2.17004 4.10998 2.17004 6.50332C2.17004 8.89665 4.11004 10.8366 6.50338 10.8366C7.57671 10.8366 8.56338 10.4433 9.32338 9.78998L9.50338 9.97665V10.5033L12.8367 13.83L13.83 12.8366L10.5034 9.50332ZM6.50338 9.50332C4.84338 9.50332 3.50338 8.16332 3.50338 6.50332C3.50338 4.84332 4.84338 3.50332 6.50338 3.50332C8.16338 3.50332 9.50338 4.84332 9.50338 6.50332C9.50338 8.16332 8.16338 9.50332 6.50338 9.50332Z" fill="#1840B2"/>
</svg>
