<svg width="16" height="16" viewBox="0 0 16 16" fill="none" xmlns="http://www.w3.org/2000/svg">
<path d="M8 3.98334C10.5267 3.98334 12.78 5.40334 13.88 7.65C12.78 9.89667 10.5267 11.3167 8 11.3167C5.47333 11.3167 3.22 9.89667 2.12 7.65C3.22 5.40334 5.47333 3.98334 8 3.98334ZM8 2.65C4.66667 2.65 1.82 4.72334 0.666667 7.65C1.82 10.5767 4.66667 12.65 8 12.65C11.3333 12.65 14.18 10.5767 15.3333 7.65C14.18 4.72334 11.3333 2.65 8 2.65ZM8 6.31667C8.73638 6.31667 9.33333 6.91362 9.33333 7.65C9.33333 8.38638 8.73638 8.98334 8 8.98334C7.26362 8.98334 6.66667 8.38638 6.66667 7.65C6.66667 6.91362 7.26362 6.31667 8 6.31667ZM8 4.65C6.34667 4.65 5 5.99667 5 7.65C5 9.30334 6.34667 10.65 8 10.65C9.65333 10.65 11 9.30334 11 7.65C11 5.99667 9.65333 4.65 8 4.65Z" fill="#28272A"/>
</svg>