<svg width="16" height="16" viewBox="0 0 16 16" fill="none" xmlns="http://www.w3.org/2000/svg">
<path d="M8.00002 3.98334C10.5267 3.98334 12.78 5.40334 13.88 7.65C13.4867 8.46334 12.9334 9.16334 12.2734 9.73L13.2134 10.67C14.14 9.85 14.8734 8.82334 15.3334 7.65C14.18 4.72334 11.3334 2.65 8.00002 2.65C7.15335 2.65 6.34002 2.78334 5.57335 3.03L6.67335 4.13C7.10669 4.04334 7.54669 3.98334 8.00002 3.98334ZM7.28669 4.74334L8.66669 6.12334C9.04669 6.29 9.35335 6.59667 9.52002 6.97667L10.9 8.35667C10.9534 8.13 10.9934 7.89 10.9934 7.64334C11 5.99 9.65335 4.65 8.00002 4.65C7.75335 4.65 7.52002 4.68334 7.28669 4.74334ZM1.34002 2.56334L3.12669 4.35C2.04002 5.20334 1.18002 6.33667 0.666687 7.65C1.82002 10.5767 4.66669 12.65 8.00002 12.65C9.01335 12.65 9.98669 12.4567 10.88 12.1033L13.16 14.3833L14.1 13.4433L2.28002 1.61667L1.34002 2.56334ZM6.34002 7.56334L8.08002 9.30334C8.05335 9.31 8.02669 9.31667 8.00002 9.31667C7.08002 9.31667 6.33335 8.57 6.33335 7.65C6.33335 7.61667 6.34002 7.59667 6.34002 7.56334ZM4.07335 5.29667L5.24002 6.46334C5.08669 6.83 5.00002 7.23 5.00002 7.65C5.00002 9.30334 6.34669 10.65 8.00002 10.65C8.42002 10.65 8.82002 10.5633 9.18002 10.41L9.83335 11.0633C9.24669 11.2233 8.63335 11.3167 8.00002 11.3167C5.47335 11.3167 3.22002 9.89667 2.12002 7.65C2.58669 6.69667 3.26669 5.91 4.07335 5.29667Z" fill="#28272A"/>
</svg>
