<svg width="1440" height="1024" viewBox="0 0 1440 1024" fill="none" xmlns="http://www.w3.org/2000/svg">
<g opacity="0.1" clip-path="url(#clip0_1_312)">
<path d="M117.895 -39C183.006 -39 235.789 13.7831 235.789 78.8945C235.789 144.006 183.006 196.789 117.895 196.789C52.7832 196.789 6.29433e-07 144.006 1.40588e-06 78.8945C2.18232e-06 13.7831 52.7832 -39 117.895 -39Z" fill="#1E1B4D"/>
<path d="M117.895 196.789C183.006 196.789 235.789 249.572 235.789 314.684C235.789 379.795 183.006 432.578 117.895 432.578C52.7832 432.578 6.29433e-07 379.795 1.40588e-06 314.684C2.18232e-06 249.572 52.7832 196.789 117.895 196.789Z" fill="#DB2F38"/>
<path d="M117.895 433C183.006 433 235.789 485.783 235.789 550.895C235.789 616.006 183.006 668.789 117.895 668.789C52.7832 668.789 6.29433e-07 616.006 1.40588e-06 550.895C2.18232e-06 485.783 52.7832 433 117.895 433Z" fill="#FED639"/>
<path d="M678.321 139C743.432 139 796.215 191.783 796.215 256.895C796.215 322.006 743.432 374.789 678.321 374.789C613.209 374.789 560.426 322.006 560.426 256.895C560.426 191.783 613.209 139 678.321 139Z" fill="#FED639"/>
<path d="M942.473 850.302C1007.58 850.302 1060.37 903.085 1060.37 968.196C1060.37 1033.31 1007.58 1086.09 942.473 1086.09C877.362 1086.09 824.578 1033.31 824.578 968.196C824.578 903.085 877.362 850.302 942.473 850.302Z" fill="#DB2F38"/>
<path d="M942.473 645.268C1007.58 645.268 1060.37 698.051 1060.37 763.162C1060.37 828.273 1007.58 881.057 942.473 881.057C877.361 881.057 824.578 828.273 824.578 763.162C824.578 698.051 877.361 645.268 942.473 645.268Z" fill="#1840B2"/>
<path d="M1178.26 645.268C1243.37 645.268 1296.16 698.051 1296.16 763.162C1296.16 828.273 1243.37 881.057 1178.26 881.057C1113.15 881.057 1060.37 828.273 1060.37 763.162C1060.37 698.051 1113.15 645.268 1178.26 645.268Z" fill="#4C9A30"/>
<path d="M1528.53 850.302C1465.99 850.302 1406.02 875.144 1361.8 919.363C1317.58 963.582 1292.74 1023.56 1292.74 1086.09C1292.74 1148.63 1317.58 1208.6 1361.8 1252.82C1406.02 1297.04 1465.99 1321.88 1528.53 1321.88L1528.53 1086.09L1528.53 850.302Z" fill="#E995B7"/>
<path d="M1292.74 850.302C1231.11 850.302 1172.01 875.144 1128.43 919.363C1084.85 963.582 1060.37 1023.56 1060.37 1086.09C1060.37 1148.63 1084.85 1208.6 1128.43 1252.82C1172.01 1297.04 1231.11 1321.88 1292.74 1321.88L1292.74 1086.09L1292.74 850.302Z" fill="#01BABB"/>
<path d="M824.578 1086.09C824.578 1024.46 799.736 965.357 755.517 921.779C711.298 878.201 651.324 853.719 588.789 853.719C526.254 853.719 466.28 878.201 422.061 921.779C377.842 965.357 353 1024.46 353 1086.09L588.789 1086.09L824.578 1086.09Z" fill="#FED639"/>
<path d="M368.578 1086.37C368.578 1024.74 343.736 965.638 299.517 922.06C255.298 878.482 195.324 854 132.789 854C70.254 854 10.2801 878.482 -33.939 922.06C-78.158 965.638 -103 1024.74 -103 1086.37L132.789 1086.37L368.578 1086.37Z" fill="#01BABB"/>
<path d="M560.426 -38.9994C560.426 -15.664 565.022 7.44292 573.952 29.002C582.883 50.5611 595.972 70.1502 612.472 86.6508C628.973 103.151 648.562 116.24 670.121 125.17C691.68 134.101 714.787 138.697 738.122 138.697L738.122 -38.9994L560.426 -38.9994Z" fill="#DB2F38"/>
<path d="M235.789 196.789C235.789 239.421 244.186 281.636 260.501 321.022C276.815 360.409 300.728 396.197 330.873 426.342C361.019 456.488 396.806 480.4 436.193 496.715C475.58 513.029 517.794 521.426 560.426 521.426L560.426 196.789L235.789 196.789Z" fill="#1840B2"/>
<rect x="987.58" y="138.696" width="177.696" height="519.419" transform="rotate(-90 987.58 138.696)" fill="#01BABB"/>
<rect x="738.122" y="138.697" width="177.696" height="249.458" transform="rotate(-90 738.122 138.697)" fill="#DB2F38"/>
<rect x="987.58" y="316.393" width="177.696" height="519.419" transform="rotate(-90 987.58 316.393)" fill="#FED639"/>
<rect x="235.789" y="196.79" width="235.789" height="324.637" transform="rotate(-90 235.789 196.79)" fill="#1840B2"/>
</g>
<defs>
<clipPath id="clip0_1_312">
<rect width="1440" height="1024" fill="white"/>
</clipPath>
</defs>
</svg>
